<mxfile host="app.diagrams.net" modified="2022-06-18T12:51:25.945Z" agent="5.0 (Windows NT 10.0; Win64; x64) AppleWebKit/537.36 (KHTML, like Gecko) Chrome/102.0.0.0 Safari/537.36" etag="vaSteisLT-QjBo2ezZpn" version="20.0.1" type="github">
  <diagram id="kGc93vFl_diiWturIOpw" name="第 1 页">
    <mxGraphModel dx="2782" dy="934" grid="1" gridSize="10" guides="1" tooltips="1" connect="1" arrows="1" fold="1" page="1" pageScale="1" pageWidth="827" pageHeight="1169" math="0" shadow="0">
      <root>
        <mxCell id="0" />
        <mxCell id="1" parent="0" />
        <mxCell id="76-xVKI1ZCRFyHYmjDiz-37" style="edgeStyle=orthogonalEdgeStyle;rounded=0;orthogonalLoop=1;jettySize=auto;html=1;entryX=0;entryY=-0.071;entryDx=0;entryDy=0;entryPerimeter=0;" parent="1" source="76-xVKI1ZCRFyHYmjDiz-1" target="76-xVKI1ZCRFyHYmjDiz-32" edge="1">
          <mxGeometry relative="1" as="geometry" />
        </mxCell>
        <mxCell id="76-xVKI1ZCRFyHYmjDiz-1" value="Iuserservice" style="swimlane;fontStyle=1;align=center;verticalAlign=top;childLayout=stackLayout;horizontal=1;startSize=26;horizontalStack=0;resizeParent=1;resizeParentMax=0;resizeLast=0;collapsible=1;marginBottom=0;" parent="1" vertex="1">
          <mxGeometry x="-650" y="154" width="160" height="90" as="geometry" />
        </mxCell>
        <mxCell id="76-xVKI1ZCRFyHYmjDiz-3" value="" style="line;strokeWidth=1;fillColor=none;align=left;verticalAlign=middle;spacingTop=-1;spacingLeft=3;spacingRight=3;rotatable=0;labelPosition=right;points=[];portConstraint=eastwest;" parent="76-xVKI1ZCRFyHYmjDiz-1" vertex="1">
          <mxGeometry y="26" width="160" height="34" as="geometry" />
        </mxCell>
        <mxCell id="76-xVKI1ZCRFyHYmjDiz-4" value="+findUser()" style="text;strokeColor=none;fillColor=none;align=left;verticalAlign=top;spacingLeft=4;spacingRight=4;overflow=hidden;rotatable=0;points=[[0,0.5],[1,0.5]];portConstraint=eastwest;" parent="76-xVKI1ZCRFyHYmjDiz-1" vertex="1">
          <mxGeometry y="60" width="160" height="30" as="geometry" />
        </mxCell>
        <mxCell id="76-xVKI1ZCRFyHYmjDiz-5" value="Paitient" style="swimlane;fontStyle=1;align=center;verticalAlign=top;childLayout=stackLayout;horizontal=1;startSize=26;horizontalStack=0;resizeParent=1;resizeParentMax=0;resizeLast=0;collapsible=1;marginBottom=0;" parent="1" vertex="1">
          <mxGeometry x="-240" y="113" width="160" height="210" as="geometry" />
        </mxCell>
        <mxCell id="76-xVKI1ZCRFyHYmjDiz-6" value="patient_id&#xa;patient_name&#xa;patient_gender&#xa;patient_dept&#xa;patient_state&#xa;patient_room&#xa;patient_bed" style="text;strokeColor=none;fillColor=none;align=left;verticalAlign=top;spacingLeft=4;spacingRight=4;overflow=hidden;rotatable=0;points=[[0,0.5],[1,0.5]];portConstraint=eastwest;" parent="76-xVKI1ZCRFyHYmjDiz-5" vertex="1">
          <mxGeometry y="26" width="160" height="114" as="geometry" />
        </mxCell>
        <mxCell id="76-xVKI1ZCRFyHYmjDiz-7" value="" style="line;strokeWidth=1;fillColor=none;align=left;verticalAlign=middle;spacingTop=-1;spacingLeft=3;spacingRight=3;rotatable=0;labelPosition=right;points=[];portConstraint=eastwest;" parent="76-xVKI1ZCRFyHYmjDiz-5" vertex="1">
          <mxGeometry y="140" width="160" height="8" as="geometry" />
        </mxCell>
        <mxCell id="76-xVKI1ZCRFyHYmjDiz-8" value="+PatientInsert()&#xa;+selectgender()&#xa;+selectstate()" style="text;strokeColor=none;fillColor=none;align=left;verticalAlign=top;spacingLeft=4;spacingRight=4;overflow=hidden;rotatable=0;points=[[0,0.5],[1,0.5]];portConstraint=eastwest;" parent="76-xVKI1ZCRFyHYmjDiz-5" vertex="1">
          <mxGeometry y="148" width="160" height="62" as="geometry" />
        </mxCell>
        <mxCell id="76-xVKI1ZCRFyHYmjDiz-57" style="edgeStyle=orthogonalEdgeStyle;rounded=0;orthogonalLoop=1;jettySize=auto;html=1;entryX=0.49;entryY=1;entryDx=0;entryDy=0;entryPerimeter=0;" parent="1" source="76-xVKI1ZCRFyHYmjDiz-9" target="76-xVKI1ZCRFyHYmjDiz-8" edge="1">
          <mxGeometry relative="1" as="geometry">
            <mxPoint x="-159.99999999999955" y="343" as="targetPoint" />
            <Array as="points">
              <mxPoint x="-162" y="363" />
              <mxPoint x="-162" y="363" />
            </Array>
          </mxGeometry>
        </mxCell>
        <mxCell id="76-xVKI1ZCRFyHYmjDiz-9" value="PaitientResult" style="swimlane;fontStyle=1;align=center;verticalAlign=top;childLayout=stackLayout;horizontal=1;startSize=26;horizontalStack=0;resizeParent=1;resizeParentMax=0;resizeLast=0;collapsible=1;marginBottom=0;" parent="1" vertex="1">
          <mxGeometry x="-240" y="383" width="160" height="190" as="geometry" />
        </mxCell>
        <mxCell id="76-xVKI1ZCRFyHYmjDiz-10" value="patient_id&#xa;patient_name&#xa;patient_gender&#xa;patient_dept&#xa;patient_state&#xa;patient_room&#xa;patient_bed" style="text;strokeColor=none;fillColor=none;align=left;verticalAlign=top;spacingLeft=4;spacingRight=4;overflow=hidden;rotatable=0;points=[[0,0.5],[1,0.5]];portConstraint=eastwest;" parent="76-xVKI1ZCRFyHYmjDiz-9" vertex="1">
          <mxGeometry y="26" width="160" height="114" as="geometry" />
        </mxCell>
        <mxCell id="76-xVKI1ZCRFyHYmjDiz-11" value="" style="line;strokeWidth=1;fillColor=none;align=left;verticalAlign=middle;spacingTop=-1;spacingLeft=3;spacingRight=3;rotatable=0;labelPosition=right;points=[];portConstraint=eastwest;" parent="76-xVKI1ZCRFyHYmjDiz-9" vertex="1">
          <mxGeometry y="140" width="160" height="8" as="geometry" />
        </mxCell>
        <mxCell id="76-xVKI1ZCRFyHYmjDiz-12" value="+get()&#xa;+set()" style="text;strokeColor=none;fillColor=none;align=left;verticalAlign=top;spacingLeft=4;spacingRight=4;overflow=hidden;rotatable=0;points=[[0,0.5],[1,0.5]];portConstraint=eastwest;" parent="76-xVKI1ZCRFyHYmjDiz-9" vertex="1">
          <mxGeometry y="148" width="160" height="42" as="geometry" />
        </mxCell>
        <mxCell id="76-xVKI1ZCRFyHYmjDiz-40" style="edgeStyle=orthogonalEdgeStyle;rounded=0;orthogonalLoop=1;jettySize=auto;html=1;exitX=0.5;exitY=0;exitDx=0;exitDy=0;entryX=0.496;entryY=1.087;entryDx=0;entryDy=0;entryPerimeter=0;" parent="1" source="76-xVKI1ZCRFyHYmjDiz-13" target="76-xVKI1ZCRFyHYmjDiz-4" edge="1">
          <mxGeometry relative="1" as="geometry" />
        </mxCell>
        <mxCell id="76-xVKI1ZCRFyHYmjDiz-13" value="ShiroFilterConfiguration" style="swimlane;fontStyle=1;align=center;verticalAlign=top;childLayout=stackLayout;horizontal=1;startSize=26;horizontalStack=0;resizeParent=1;resizeParentMax=0;resizeLast=0;collapsible=1;marginBottom=0;" parent="1" vertex="1">
          <mxGeometry x="-650" y="273" width="160" height="94" as="geometry" />
        </mxCell>
        <mxCell id="76-xVKI1ZCRFyHYmjDiz-14" value="tms_user&#xa;tms_pswd&#xa;" style="text;strokeColor=none;fillColor=none;align=left;verticalAlign=top;spacingLeft=4;spacingRight=4;overflow=hidden;rotatable=0;points=[[0,0.5],[1,0.5]];portConstraint=eastwest;" parent="76-xVKI1ZCRFyHYmjDiz-13" vertex="1">
          <mxGeometry y="26" width="160" height="34" as="geometry" />
        </mxCell>
        <mxCell id="76-xVKI1ZCRFyHYmjDiz-15" value="" style="line;strokeWidth=1;fillColor=none;align=left;verticalAlign=middle;spacingTop=-1;spacingLeft=3;spacingRight=3;rotatable=0;labelPosition=right;points=[];portConstraint=eastwest;" parent="76-xVKI1ZCRFyHYmjDiz-13" vertex="1">
          <mxGeometry y="60" width="160" height="8" as="geometry" />
        </mxCell>
        <mxCell id="76-xVKI1ZCRFyHYmjDiz-16" value="+selectUser()" style="text;strokeColor=none;fillColor=none;align=left;verticalAlign=top;spacingLeft=4;spacingRight=4;overflow=hidden;rotatable=0;points=[[0,0.5],[1,0.5]];portConstraint=eastwest;" parent="76-xVKI1ZCRFyHYmjDiz-13" vertex="1">
          <mxGeometry y="68" width="160" height="26" as="geometry" />
        </mxCell>
        <mxCell id="76-xVKI1ZCRFyHYmjDiz-39" style="edgeStyle=orthogonalEdgeStyle;rounded=0;orthogonalLoop=1;jettySize=auto;html=1;" parent="1" source="76-xVKI1ZCRFyHYmjDiz-17" edge="1">
          <mxGeometry relative="1" as="geometry">
            <mxPoint x="-570" y="153" as="targetPoint" />
          </mxGeometry>
        </mxCell>
        <mxCell id="76-xVKI1ZCRFyHYmjDiz-17" value="UserserviceImpl" style="swimlane;fontStyle=1;align=center;verticalAlign=top;childLayout=stackLayout;horizontal=1;startSize=26;horizontalStack=0;resizeParent=1;resizeParentMax=0;resizeLast=0;collapsible=1;marginBottom=0;" parent="1" vertex="1">
          <mxGeometry x="-650" y="30" width="160" height="100" as="geometry" />
        </mxCell>
        <mxCell id="76-xVKI1ZCRFyHYmjDiz-18" value="username&#xa;userpassword" style="text;strokeColor=none;fillColor=none;align=left;verticalAlign=top;spacingLeft=4;spacingRight=4;overflow=hidden;rotatable=0;points=[[0,0.5],[1,0.5]];portConstraint=eastwest;" parent="76-xVKI1ZCRFyHYmjDiz-17" vertex="1">
          <mxGeometry y="26" width="160" height="44" as="geometry" />
        </mxCell>
        <mxCell id="76-xVKI1ZCRFyHYmjDiz-19" value="" style="line;strokeWidth=1;fillColor=none;align=left;verticalAlign=middle;spacingTop=-1;spacingLeft=3;spacingRight=3;rotatable=0;labelPosition=right;points=[];portConstraint=eastwest;" parent="76-xVKI1ZCRFyHYmjDiz-17" vertex="1">
          <mxGeometry y="70" width="160" height="8" as="geometry" />
        </mxCell>
        <mxCell id="76-xVKI1ZCRFyHYmjDiz-20" value="+finduser()" style="text;strokeColor=none;fillColor=none;align=left;verticalAlign=top;spacingLeft=4;spacingRight=4;overflow=hidden;rotatable=0;points=[[0,0.5],[1,0.5]];portConstraint=eastwest;" parent="76-xVKI1ZCRFyHYmjDiz-17" vertex="1">
          <mxGeometry y="78" width="160" height="22" as="geometry" />
        </mxCell>
        <mxCell id="76-xVKI1ZCRFyHYmjDiz-50" style="edgeStyle=orthogonalEdgeStyle;rounded=0;orthogonalLoop=1;jettySize=auto;html=1;entryX=0.5;entryY=1;entryDx=0;entryDy=0;entryPerimeter=0;" parent="1" source="76-xVKI1ZCRFyHYmjDiz-21" target="76-xVKI1ZCRFyHYmjDiz-12" edge="1">
          <mxGeometry relative="1" as="geometry" />
        </mxCell>
        <mxCell id="76-xVKI1ZCRFyHYmjDiz-21" value="PaitientService" style="swimlane;fontStyle=1;align=center;verticalAlign=top;childLayout=stackLayout;horizontal=1;startSize=26;horizontalStack=0;resizeParent=1;resizeParentMax=0;resizeLast=0;collapsible=1;marginBottom=0;" parent="1" vertex="1">
          <mxGeometry x="-240" y="597" width="160" height="110" as="geometry" />
        </mxCell>
        <mxCell id="76-xVKI1ZCRFyHYmjDiz-22" value="                     " style="text;strokeColor=none;fillColor=none;align=left;verticalAlign=top;spacingLeft=4;spacingRight=4;overflow=hidden;rotatable=0;points=[[0,0.5],[1,0.5]];portConstraint=eastwest;" parent="76-xVKI1ZCRFyHYmjDiz-21" vertex="1">
          <mxGeometry y="26" width="160" height="26" as="geometry" />
        </mxCell>
        <mxCell id="76-xVKI1ZCRFyHYmjDiz-23" value="" style="line;strokeWidth=1;fillColor=none;align=left;verticalAlign=middle;spacingTop=-1;spacingLeft=3;spacingRight=3;rotatable=0;labelPosition=right;points=[];portConstraint=eastwest;" parent="76-xVKI1ZCRFyHYmjDiz-21" vertex="1">
          <mxGeometry y="52" width="160" height="8" as="geometry" />
        </mxCell>
        <mxCell id="76-xVKI1ZCRFyHYmjDiz-24" value="+patientInsert()&#xa;+selectgender()&#xa;+selectstate()" style="text;strokeColor=none;fillColor=none;align=left;verticalAlign=top;spacingLeft=4;spacingRight=4;overflow=hidden;rotatable=0;points=[[0,0.5],[1,0.5]];portConstraint=eastwest;" parent="76-xVKI1ZCRFyHYmjDiz-21" vertex="1">
          <mxGeometry y="60" width="160" height="50" as="geometry" />
        </mxCell>
        <mxCell id="76-xVKI1ZCRFyHYmjDiz-41" style="edgeStyle=orthogonalEdgeStyle;rounded=0;orthogonalLoop=1;jettySize=auto;html=1;entryX=0;entryY=0.5;entryDx=0;entryDy=0;" parent="1" target="76-xVKI1ZCRFyHYmjDiz-6" edge="1">
          <mxGeometry relative="1" as="geometry">
            <mxPoint x="-260" y="189" as="targetPoint" />
            <mxPoint x="-290" y="196" as="sourcePoint" />
          </mxGeometry>
        </mxCell>
        <mxCell id="76-xVKI1ZCRFyHYmjDiz-29" value="User" style="swimlane;fontStyle=1;align=center;verticalAlign=top;childLayout=stackLayout;horizontal=1;startSize=26;horizontalStack=0;resizeParent=1;resizeParentMax=0;resizeLast=0;collapsible=1;marginBottom=0;" parent="1" vertex="1">
          <mxGeometry x="-450" y="134" width="160" height="110" as="geometry" />
        </mxCell>
        <mxCell id="76-xVKI1ZCRFyHYmjDiz-30" value="tms_user&#xa;tms_pswd" style="text;strokeColor=none;fillColor=none;align=left;verticalAlign=top;spacingLeft=4;spacingRight=4;overflow=hidden;rotatable=0;points=[[0,0.5],[1,0.5]];portConstraint=eastwest;" parent="76-xVKI1ZCRFyHYmjDiz-29" vertex="1">
          <mxGeometry y="26" width="160" height="34" as="geometry" />
        </mxCell>
        <mxCell id="76-xVKI1ZCRFyHYmjDiz-31" value="" style="line;strokeWidth=1;fillColor=none;align=left;verticalAlign=middle;spacingTop=-1;spacingLeft=3;spacingRight=3;rotatable=0;labelPosition=right;points=[];portConstraint=eastwest;" parent="76-xVKI1ZCRFyHYmjDiz-29" vertex="1">
          <mxGeometry y="60" width="160" height="8" as="geometry" />
        </mxCell>
        <mxCell id="76-xVKI1ZCRFyHYmjDiz-32" value="+getUsername()&#xa;+getUserpassword()" style="text;strokeColor=none;fillColor=none;align=left;verticalAlign=top;spacingLeft=4;spacingRight=4;overflow=hidden;rotatable=0;points=[[0,0.5],[1,0.5]];portConstraint=eastwest;" parent="76-xVKI1ZCRFyHYmjDiz-29" vertex="1">
          <mxGeometry y="68" width="160" height="42" as="geometry" />
        </mxCell>
        <mxCell id="76-xVKI1ZCRFyHYmjDiz-43" value="PaitientServiceImpl" style="swimlane;fontStyle=1;align=center;verticalAlign=top;childLayout=stackLayout;horizontal=1;startSize=26;horizontalStack=0;resizeParent=1;resizeParentMax=0;resizeLast=0;collapsible=1;marginBottom=0;" parent="1" vertex="1">
          <mxGeometry x="-470" y="507" width="160" height="200" as="geometry" />
        </mxCell>
        <mxCell id="76-xVKI1ZCRFyHYmjDiz-44" value="patient_id&#xa;patient_name&#xa;patient_gender&#xa;patient_dept&#xa;patient_state&#xa;patient_room&#xa;patient_bed" style="text;strokeColor=none;fillColor=none;align=left;verticalAlign=top;spacingLeft=4;spacingRight=4;overflow=hidden;rotatable=0;points=[[0,0.5],[1,0.5]];portConstraint=eastwest;" parent="76-xVKI1ZCRFyHYmjDiz-43" vertex="1">
          <mxGeometry y="26" width="160" height="114" as="geometry" />
        </mxCell>
        <mxCell id="76-xVKI1ZCRFyHYmjDiz-45" value="" style="line;strokeWidth=1;fillColor=none;align=left;verticalAlign=middle;spacingTop=-1;spacingLeft=3;spacingRight=3;rotatable=0;labelPosition=right;points=[];portConstraint=eastwest;" parent="76-xVKI1ZCRFyHYmjDiz-43" vertex="1">
          <mxGeometry y="140" width="160" height="8" as="geometry" />
        </mxCell>
        <mxCell id="76-xVKI1ZCRFyHYmjDiz-46" value="+PatientInsert()&#xa;+selectgender()&#xa;+selectstate()" style="text;strokeColor=none;fillColor=none;align=left;verticalAlign=top;spacingLeft=4;spacingRight=4;overflow=hidden;rotatable=0;points=[[0,0.5],[1,0.5]];portConstraint=eastwest;" parent="76-xVKI1ZCRFyHYmjDiz-43" vertex="1">
          <mxGeometry y="148" width="160" height="52" as="geometry" />
        </mxCell>
        <mxCell id="76-xVKI1ZCRFyHYmjDiz-51" value="Room" style="swimlane;fontStyle=1;align=center;verticalAlign=top;childLayout=stackLayout;horizontal=1;startSize=26;horizontalStack=0;resizeParent=1;resizeParentMax=0;resizeLast=0;collapsible=1;marginBottom=0;" parent="1" vertex="1">
          <mxGeometry x="-10" y="122" width="160" height="170" as="geometry" />
        </mxCell>
        <mxCell id="76-xVKI1ZCRFyHYmjDiz-52" value="room_id&#xa;room_no&#xa;room_judge&#xa;room_adaptSex&#xa;room_amount&#xa;room_bedavailable" style="text;strokeColor=none;fillColor=none;align=left;verticalAlign=top;spacingLeft=4;spacingRight=4;overflow=hidden;rotatable=0;points=[[0,0.5],[1,0.5]];portConstraint=eastwest;" parent="76-xVKI1ZCRFyHYmjDiz-51" vertex="1">
          <mxGeometry y="26" width="160" height="94" as="geometry" />
        </mxCell>
        <mxCell id="76-xVKI1ZCRFyHYmjDiz-53" value="" style="line;strokeWidth=1;fillColor=none;align=left;verticalAlign=middle;spacingTop=-1;spacingLeft=3;spacingRight=3;rotatable=0;labelPosition=right;points=[];portConstraint=eastwest;" parent="76-xVKI1ZCRFyHYmjDiz-51" vertex="1">
          <mxGeometry y="120" width="160" height="8" as="geometry" />
        </mxCell>
        <mxCell id="76-xVKI1ZCRFyHYmjDiz-54" value="+selectadaptSex() &#xa;+StateQuery()" style="text;strokeColor=none;fillColor=none;align=left;verticalAlign=top;spacingLeft=4;spacingRight=4;overflow=hidden;rotatable=0;points=[[0,0.5],[1,0.5]];portConstraint=eastwest;" parent="76-xVKI1ZCRFyHYmjDiz-51" vertex="1">
          <mxGeometry y="128" width="160" height="42" as="geometry" />
        </mxCell>
        <mxCell id="76-xVKI1ZCRFyHYmjDiz-58" style="edgeStyle=orthogonalEdgeStyle;rounded=0;orthogonalLoop=1;jettySize=auto;html=1;" parent="1" edge="1">
          <mxGeometry relative="1" as="geometry">
            <mxPoint x="-80" y="214" as="sourcePoint" />
            <mxPoint x="-10" y="214" as="targetPoint" />
          </mxGeometry>
        </mxCell>
        <mxCell id="76-xVKI1ZCRFyHYmjDiz-71" style="edgeStyle=orthogonalEdgeStyle;rounded=0;orthogonalLoop=1;jettySize=auto;html=1;" parent="1" source="76-xVKI1ZCRFyHYmjDiz-59" edge="1">
          <mxGeometry relative="1" as="geometry">
            <mxPoint x="70" y="293" as="targetPoint" />
            <Array as="points">
              <mxPoint x="70" y="303" />
              <mxPoint x="69" y="303" />
            </Array>
          </mxGeometry>
        </mxCell>
        <mxCell id="76-xVKI1ZCRFyHYmjDiz-59" value="RoomService" style="swimlane;fontStyle=1;align=center;verticalAlign=top;childLayout=stackLayout;horizontal=1;startSize=20;horizontalStack=0;resizeParent=1;resizeParentMax=0;resizeLast=0;collapsible=1;marginBottom=0;" parent="1" vertex="1">
          <mxGeometry x="-10" y="333" width="160" height="90" as="geometry" />
        </mxCell>
        <mxCell id="76-xVKI1ZCRFyHYmjDiz-60" value="  " style="text;strokeColor=none;fillColor=none;align=left;verticalAlign=top;spacingLeft=4;spacingRight=4;overflow=hidden;rotatable=0;points=[[0,0.5],[1,0.5]];portConstraint=eastwest;" parent="76-xVKI1ZCRFyHYmjDiz-59" vertex="1">
          <mxGeometry y="20" width="160" height="24" as="geometry" />
        </mxCell>
        <mxCell id="76-xVKI1ZCRFyHYmjDiz-61" value="" style="line;strokeWidth=1;fillColor=none;align=left;verticalAlign=middle;spacingTop=-1;spacingLeft=3;spacingRight=3;rotatable=0;labelPosition=right;points=[];portConstraint=eastwest;" parent="76-xVKI1ZCRFyHYmjDiz-59" vertex="1">
          <mxGeometry y="44" width="160" height="8" as="geometry" />
        </mxCell>
        <mxCell id="76-xVKI1ZCRFyHYmjDiz-62" value="+selectadaptSex() &#xa;+StateQuery()" style="text;strokeColor=none;fillColor=none;align=left;verticalAlign=top;spacingLeft=4;spacingRight=4;overflow=hidden;rotatable=0;points=[[0,0.5],[1,0.5]];portConstraint=eastwest;" parent="76-xVKI1ZCRFyHYmjDiz-59" vertex="1">
          <mxGeometry y="52" width="160" height="38" as="geometry" />
        </mxCell>
        <mxCell id="76-xVKI1ZCRFyHYmjDiz-72" style="edgeStyle=orthogonalEdgeStyle;rounded=0;orthogonalLoop=1;jettySize=auto;html=1;" parent="1" source="76-xVKI1ZCRFyHYmjDiz-63" edge="1">
          <mxGeometry relative="1" as="geometry">
            <mxPoint x="70" y="423" as="targetPoint" />
            <Array as="points">
              <mxPoint x="70" y="423" />
              <mxPoint x="70" y="423" />
            </Array>
          </mxGeometry>
        </mxCell>
        <mxCell id="76-xVKI1ZCRFyHYmjDiz-63" value="RoomServiceImpl" style="swimlane;fontStyle=1;align=center;verticalAlign=top;childLayout=stackLayout;horizontal=1;startSize=26;horizontalStack=0;resizeParent=1;resizeParentMax=0;resizeLast=0;collapsible=1;marginBottom=0;" parent="1" vertex="1">
          <mxGeometry x="-10" y="463" width="160" height="170" as="geometry" />
        </mxCell>
        <mxCell id="76-xVKI1ZCRFyHYmjDiz-64" value="room_id&#xa;room_no&#xa;room_judge&#xa;room_adaptSex&#xa;room_amount&#xa;room_bedavailable" style="text;strokeColor=none;fillColor=none;align=left;verticalAlign=top;spacingLeft=4;spacingRight=4;overflow=hidden;rotatable=0;points=[[0,0.5],[1,0.5]];portConstraint=eastwest;" parent="76-xVKI1ZCRFyHYmjDiz-63" vertex="1">
          <mxGeometry y="26" width="160" height="94" as="geometry" />
        </mxCell>
        <mxCell id="76-xVKI1ZCRFyHYmjDiz-65" value="" style="line;strokeWidth=1;fillColor=none;align=left;verticalAlign=middle;spacingTop=-1;spacingLeft=3;spacingRight=3;rotatable=0;labelPosition=right;points=[];portConstraint=eastwest;" parent="76-xVKI1ZCRFyHYmjDiz-63" vertex="1">
          <mxGeometry y="120" width="160" height="8" as="geometry" />
        </mxCell>
        <mxCell id="76-xVKI1ZCRFyHYmjDiz-66" value="+selectadaptSex() &#xa;+StateQuery()" style="text;strokeColor=none;fillColor=none;align=left;verticalAlign=top;spacingLeft=4;spacingRight=4;overflow=hidden;rotatable=0;points=[[0,0.5],[1,0.5]];portConstraint=eastwest;" parent="76-xVKI1ZCRFyHYmjDiz-63" vertex="1">
          <mxGeometry y="128" width="160" height="42" as="geometry" />
        </mxCell>
        <mxCell id="76-xVKI1ZCRFyHYmjDiz-74" value="Bed" style="swimlane;fontStyle=1;align=center;verticalAlign=top;childLayout=stackLayout;horizontal=1;startSize=26;horizontalStack=0;resizeParent=1;resizeParentMax=0;resizeLast=0;collapsible=1;marginBottom=0;" parent="1" vertex="1">
          <mxGeometry x="220" y="122" width="160" height="120" as="geometry" />
        </mxCell>
        <mxCell id="76-xVKI1ZCRFyHYmjDiz-75" value="bed_id&#xa;bed_no" style="text;strokeColor=none;fillColor=none;align=left;verticalAlign=top;spacingLeft=4;spacingRight=4;overflow=hidden;rotatable=0;points=[[0,0.5],[1,0.5]];portConstraint=eastwest;" parent="76-xVKI1ZCRFyHYmjDiz-74" vertex="1">
          <mxGeometry y="26" width="160" height="44" as="geometry" />
        </mxCell>
        <mxCell id="76-xVKI1ZCRFyHYmjDiz-76" value="" style="line;strokeWidth=1;fillColor=none;align=left;verticalAlign=middle;spacingTop=-1;spacingLeft=3;spacingRight=3;rotatable=0;labelPosition=right;points=[];portConstraint=eastwest;" parent="76-xVKI1ZCRFyHYmjDiz-74" vertex="1">
          <mxGeometry y="70" width="160" height="8" as="geometry" />
        </mxCell>
        <mxCell id="76-xVKI1ZCRFyHYmjDiz-77" value="+BedQuery()&#xa;+BedUpdate()" style="text;strokeColor=none;fillColor=none;align=left;verticalAlign=top;spacingLeft=4;spacingRight=4;overflow=hidden;rotatable=0;points=[[0,0.5],[1,0.5]];portConstraint=eastwest;" parent="76-xVKI1ZCRFyHYmjDiz-74" vertex="1">
          <mxGeometry y="78" width="160" height="42" as="geometry" />
        </mxCell>
        <mxCell id="76-xVKI1ZCRFyHYmjDiz-86" style="edgeStyle=orthogonalEdgeStyle;rounded=0;orthogonalLoop=1;jettySize=auto;html=1;exitX=0.5;exitY=0;exitDx=0;exitDy=0;entryX=0.491;entryY=1.07;entryDx=0;entryDy=0;entryPerimeter=0;" parent="1" source="76-xVKI1ZCRFyHYmjDiz-78" target="76-xVKI1ZCRFyHYmjDiz-77" edge="1">
          <mxGeometry relative="1" as="geometry" />
        </mxCell>
        <mxCell id="76-xVKI1ZCRFyHYmjDiz-78" value="BedService" style="swimlane;fontStyle=1;align=center;verticalAlign=top;childLayout=stackLayout;horizontal=1;startSize=26;horizontalStack=0;resizeParent=1;resizeParentMax=0;resizeLast=0;collapsible=1;marginBottom=0;" parent="1" vertex="1">
          <mxGeometry x="220" y="262" width="160" height="100" as="geometry" />
        </mxCell>
        <mxCell id="76-xVKI1ZCRFyHYmjDiz-79" value="             " style="text;strokeColor=none;fillColor=none;align=left;verticalAlign=top;spacingLeft=4;spacingRight=4;overflow=hidden;rotatable=0;points=[[0,0.5],[1,0.5]];portConstraint=eastwest;" parent="76-xVKI1ZCRFyHYmjDiz-78" vertex="1">
          <mxGeometry y="26" width="160" height="26" as="geometry" />
        </mxCell>
        <mxCell id="76-xVKI1ZCRFyHYmjDiz-80" value="" style="line;strokeWidth=1;fillColor=none;align=left;verticalAlign=middle;spacingTop=-1;spacingLeft=3;spacingRight=3;rotatable=0;labelPosition=right;points=[];portConstraint=eastwest;" parent="76-xVKI1ZCRFyHYmjDiz-78" vertex="1">
          <mxGeometry y="52" width="160" height="8" as="geometry" />
        </mxCell>
        <mxCell id="76-xVKI1ZCRFyHYmjDiz-81" value="+BedQuery()&#xa;+BedUpdate()" style="text;strokeColor=none;fillColor=none;align=left;verticalAlign=top;spacingLeft=4;spacingRight=4;overflow=hidden;rotatable=0;points=[[0,0.5],[1,0.5]];portConstraint=eastwest;" parent="76-xVKI1ZCRFyHYmjDiz-78" vertex="1">
          <mxGeometry y="60" width="160" height="40" as="geometry" />
        </mxCell>
        <mxCell id="76-xVKI1ZCRFyHYmjDiz-87" style="edgeStyle=orthogonalEdgeStyle;rounded=0;orthogonalLoop=1;jettySize=auto;html=1;entryX=0.5;entryY=1.025;entryDx=0;entryDy=0;entryPerimeter=0;" parent="1" source="76-xVKI1ZCRFyHYmjDiz-82" target="76-xVKI1ZCRFyHYmjDiz-81" edge="1">
          <mxGeometry relative="1" as="geometry" />
        </mxCell>
        <mxCell id="76-xVKI1ZCRFyHYmjDiz-82" value="BedServiceImpl" style="swimlane;fontStyle=1;align=center;verticalAlign=top;childLayout=stackLayout;horizontal=1;startSize=26;horizontalStack=0;resizeParent=1;resizeParentMax=0;resizeLast=0;collapsible=1;marginBottom=0;" parent="1" vertex="1">
          <mxGeometry x="220" y="403" width="160" height="120" as="geometry" />
        </mxCell>
        <mxCell id="76-xVKI1ZCRFyHYmjDiz-83" value="bed_id&#xa;bed_no" style="text;strokeColor=none;fillColor=none;align=left;verticalAlign=top;spacingLeft=4;spacingRight=4;overflow=hidden;rotatable=0;points=[[0,0.5],[1,0.5]];portConstraint=eastwest;" parent="76-xVKI1ZCRFyHYmjDiz-82" vertex="1">
          <mxGeometry y="26" width="160" height="44" as="geometry" />
        </mxCell>
        <mxCell id="76-xVKI1ZCRFyHYmjDiz-84" value="" style="line;strokeWidth=1;fillColor=none;align=left;verticalAlign=middle;spacingTop=-1;spacingLeft=3;spacingRight=3;rotatable=0;labelPosition=right;points=[];portConstraint=eastwest;" parent="76-xVKI1ZCRFyHYmjDiz-82" vertex="1">
          <mxGeometry y="70" width="160" height="8" as="geometry" />
        </mxCell>
        <mxCell id="76-xVKI1ZCRFyHYmjDiz-85" value="+BedQuery()&#xa;+BedUpdate()" style="text;strokeColor=none;fillColor=none;align=left;verticalAlign=top;spacingLeft=4;spacingRight=4;overflow=hidden;rotatable=0;points=[[0,0.5],[1,0.5]];portConstraint=eastwest;" parent="76-xVKI1ZCRFyHYmjDiz-82" vertex="1">
          <mxGeometry y="78" width="160" height="42" as="geometry" />
        </mxCell>
        <mxCell id="76-xVKI1ZCRFyHYmjDiz-88" style="edgeStyle=orthogonalEdgeStyle;rounded=0;orthogonalLoop=1;jettySize=auto;html=1;entryX=0;entryY=1.068;entryDx=0;entryDy=0;entryPerimeter=0;" parent="1" source="76-xVKI1ZCRFyHYmjDiz-52" target="76-xVKI1ZCRFyHYmjDiz-75" edge="1">
          <mxGeometry relative="1" as="geometry" />
        </mxCell>
        <mxCell id="76-xVKI1ZCRFyHYmjDiz-89" style="edgeStyle=orthogonalEdgeStyle;rounded=0;orthogonalLoop=1;jettySize=auto;html=1;exitX=1;exitY=0.5;exitDx=0;exitDy=0;entryX=-0.029;entryY=0.104;entryDx=0;entryDy=0;entryPerimeter=0;" parent="1" source="76-xVKI1ZCRFyHYmjDiz-44" target="76-xVKI1ZCRFyHYmjDiz-24" edge="1">
          <mxGeometry relative="1" as="geometry" />
        </mxCell>
        <mxCell id="76-xVKI1ZCRFyHYmjDiz-93" value="&lt;span style=&quot;font-weight: 700;&quot;&gt;PaitientService&lt;/span&gt;" style="html=1;" parent="1" vertex="1">
          <mxGeometry x="-510" y="760" width="140" height="50" as="geometry" />
        </mxCell>
        <mxCell id="76-xVKI1ZCRFyHYmjDiz-95" value="&lt;span style=&quot;font-weight: 700;&quot;&gt;PaitientServiceImpl&lt;/span&gt;" style="html=1;" parent="1" vertex="1">
          <mxGeometry x="-300" y="760" width="110" height="50" as="geometry" />
        </mxCell>
        <mxCell id="76-xVKI1ZCRFyHYmjDiz-96" value="&lt;span style=&quot;font-weight: 700;&quot;&gt;Paitient&lt;/span&gt;" style="html=1;" parent="1" vertex="1">
          <mxGeometry x="-120" y="760" width="110" height="50" as="geometry" />
        </mxCell>
        <mxCell id="76-xVKI1ZCRFyHYmjDiz-97" value="&lt;span style=&quot;font-weight: 700;&quot;&gt;RoomService&lt;/span&gt;" style="html=1;" parent="1" vertex="1">
          <mxGeometry x="60" y="760" width="110" height="50" as="geometry" />
        </mxCell>
        <mxCell id="76-xVKI1ZCRFyHYmjDiz-98" value="&lt;span style=&quot;font-weight: 700;&quot;&gt;RoomServiceImpl&lt;/span&gt;" style="html=1;" parent="1" vertex="1">
          <mxGeometry x="240" y="760" width="110" height="50" as="geometry" />
        </mxCell>
        <mxCell id="76-xVKI1ZCRFyHYmjDiz-99" value="&lt;span style=&quot;font-weight: 700;&quot;&gt;Room&lt;/span&gt;" style="html=1;" parent="1" vertex="1">
          <mxGeometry x="420" y="760" width="110" height="50" as="geometry" />
        </mxCell>
        <mxCell id="76-xVKI1ZCRFyHYmjDiz-100" value="&lt;span style=&quot;font-weight: 700;&quot;&gt;BedService&lt;/span&gt;" style="html=1;" parent="1" vertex="1">
          <mxGeometry x="600" y="760" width="110" height="50" as="geometry" />
        </mxCell>
        <mxCell id="76-xVKI1ZCRFyHYmjDiz-101" value="&lt;span style=&quot;font-weight: 700;&quot;&gt;BedServiceImpl&lt;/span&gt;" style="html=1;" parent="1" vertex="1">
          <mxGeometry x="780" y="760" width="110" height="50" as="geometry" />
        </mxCell>
        <mxCell id="76-xVKI1ZCRFyHYmjDiz-102" value="&lt;span style=&quot;font-weight: 700;&quot;&gt;Bed&lt;/span&gt;" style="html=1;" parent="1" vertex="1">
          <mxGeometry x="920" y="760" width="110" height="50" as="geometry" />
        </mxCell>
        <mxCell id="76-xVKI1ZCRFyHYmjDiz-103" value="" style="endArrow=none;dashed=1;html=1;rounded=0;entryX=0.5;entryY=1;entryDx=0;entryDy=0;" parent="1" target="76-xVKI1ZCRFyHYmjDiz-93" edge="1">
          <mxGeometry width="50" height="50" relative="1" as="geometry">
            <mxPoint x="-440" y="1420" as="sourcePoint" />
            <mxPoint x="360" y="740" as="targetPoint" />
          </mxGeometry>
        </mxCell>
        <mxCell id="76-xVKI1ZCRFyHYmjDiz-104" value="" style="endArrow=none;dashed=1;html=1;rounded=0;entryX=0.5;entryY=1;entryDx=0;entryDy=0;" parent="1" target="76-xVKI1ZCRFyHYmjDiz-95" edge="1">
          <mxGeometry width="50" height="50" relative="1" as="geometry">
            <mxPoint x="-245" y="1420" as="sourcePoint" />
            <mxPoint x="-250" y="910" as="targetPoint" />
          </mxGeometry>
        </mxCell>
        <mxCell id="76-xVKI1ZCRFyHYmjDiz-105" value="" style="endArrow=none;dashed=1;html=1;rounded=0;entryX=0.5;entryY=1;entryDx=0;entryDy=0;" parent="1" target="76-xVKI1ZCRFyHYmjDiz-96" edge="1">
          <mxGeometry width="50" height="50" relative="1" as="geometry">
            <mxPoint x="-60" y="1430" as="sourcePoint" />
            <mxPoint x="-50" y="890" as="targetPoint" />
          </mxGeometry>
        </mxCell>
        <mxCell id="76-xVKI1ZCRFyHYmjDiz-106" value="" style="endArrow=none;dashed=1;html=1;rounded=0;entryX=0.5;entryY=1;entryDx=0;entryDy=0;" parent="1" target="76-xVKI1ZCRFyHYmjDiz-97" edge="1">
          <mxGeometry width="50" height="50" relative="1" as="geometry">
            <mxPoint x="115" y="1440" as="sourcePoint" />
            <mxPoint x="140" y="870" as="targetPoint" />
          </mxGeometry>
        </mxCell>
        <mxCell id="76-xVKI1ZCRFyHYmjDiz-107" value="" style="endArrow=none;dashed=1;html=1;rounded=0;entryX=0.5;entryY=1;entryDx=0;entryDy=0;" parent="1" target="76-xVKI1ZCRFyHYmjDiz-98" edge="1">
          <mxGeometry width="50" height="50" relative="1" as="geometry">
            <mxPoint x="295" y="1430" as="sourcePoint" />
            <mxPoint x="320" y="900" as="targetPoint" />
          </mxGeometry>
        </mxCell>
        <mxCell id="76-xVKI1ZCRFyHYmjDiz-108" value="" style="endArrow=none;dashed=1;html=1;rounded=0;entryX=0.5;entryY=1;entryDx=0;entryDy=0;" parent="1" target="76-xVKI1ZCRFyHYmjDiz-99" edge="1">
          <mxGeometry width="50" height="50" relative="1" as="geometry">
            <mxPoint x="475" y="1420" as="sourcePoint" />
            <mxPoint x="530" y="870" as="targetPoint" />
          </mxGeometry>
        </mxCell>
        <mxCell id="76-xVKI1ZCRFyHYmjDiz-109" value="" style="endArrow=none;dashed=1;html=1;rounded=0;entryX=0.5;entryY=1;entryDx=0;entryDy=0;" parent="1" target="76-xVKI1ZCRFyHYmjDiz-100" edge="1">
          <mxGeometry width="50" height="50" relative="1" as="geometry">
            <mxPoint x="660" y="1460" as="sourcePoint" />
            <mxPoint x="690" y="880" as="targetPoint" />
          </mxGeometry>
        </mxCell>
        <mxCell id="76-xVKI1ZCRFyHYmjDiz-110" value="" style="endArrow=none;dashed=1;html=1;rounded=0;entryX=0.5;entryY=1;entryDx=0;entryDy=0;" parent="1" target="76-xVKI1ZCRFyHYmjDiz-101" edge="1">
          <mxGeometry width="50" height="50" relative="1" as="geometry">
            <mxPoint x="835" y="1450" as="sourcePoint" />
            <mxPoint x="860" y="830" as="targetPoint" />
          </mxGeometry>
        </mxCell>
        <mxCell id="76-xVKI1ZCRFyHYmjDiz-111" value="" style="endArrow=none;dashed=1;html=1;rounded=0;entryX=0.5;entryY=1;entryDx=0;entryDy=0;" parent="1" target="76-xVKI1ZCRFyHYmjDiz-102" edge="1">
          <mxGeometry width="50" height="50" relative="1" as="geometry">
            <mxPoint x="970" y="1450" as="sourcePoint" />
            <mxPoint x="1030" y="890" as="targetPoint" />
          </mxGeometry>
        </mxCell>
        <mxCell id="VDdBOoh0vI-qaVWEPdKM-1" value="护士" style="shape=umlActor;verticalLabelPosition=bottom;verticalAlign=top;html=1;outlineConnect=0;" vertex="1" parent="1">
          <mxGeometry x="-650" y="760" width="30" height="60" as="geometry" />
        </mxCell>
        <mxCell id="VDdBOoh0vI-qaVWEPdKM-3" value="" style="endArrow=none;dashed=1;html=1;dashPattern=1 3;strokeWidth=2;rounded=0;elbow=vertical;" edge="1" parent="1">
          <mxGeometry width="50" height="50" relative="1" as="geometry">
            <mxPoint x="-640" y="1410" as="sourcePoint" />
            <mxPoint x="-640" y="840" as="targetPoint" />
            <Array as="points">
              <mxPoint x="-640" y="880" />
            </Array>
          </mxGeometry>
        </mxCell>
        <mxCell id="VDdBOoh0vI-qaVWEPdKM-4" value="" style="endArrow=classic;html=1;rounded=0;elbow=vertical;" edge="1" parent="1">
          <mxGeometry width="50" height="50" relative="1" as="geometry">
            <mxPoint x="-640" y="900" as="sourcePoint" />
            <mxPoint x="-440" y="900" as="targetPoint" />
            <Array as="points">
              <mxPoint x="-520" y="900" />
            </Array>
          </mxGeometry>
        </mxCell>
        <mxCell id="VDdBOoh0vI-qaVWEPdKM-5" value="1.添加病人" style="text;html=1;align=center;verticalAlign=middle;resizable=0;points=[];autosize=1;strokeColor=none;fillColor=none;" vertex="1" parent="1">
          <mxGeometry x="-575" y="880" width="70" height="20" as="geometry" />
        </mxCell>
        <mxCell id="VDdBOoh0vI-qaVWEPdKM-6" value="" style="endArrow=classic;html=1;rounded=0;elbow=vertical;" edge="1" parent="1">
          <mxGeometry width="50" height="50" relative="1" as="geometry">
            <mxPoint x="-440" y="930" as="sourcePoint" />
            <mxPoint x="-250" y="930" as="targetPoint" />
          </mxGeometry>
        </mxCell>
        <mxCell id="VDdBOoh0vI-qaVWEPdKM-7" value="2.调用PatientInsert()方法" style="text;html=1;align=center;verticalAlign=middle;resizable=0;points=[];autosize=1;strokeColor=none;fillColor=none;" vertex="1" parent="1">
          <mxGeometry x="-435" y="910" width="150" height="20" as="geometry" />
        </mxCell>
        <mxCell id="VDdBOoh0vI-qaVWEPdKM-8" value="" style="endArrow=classic;html=1;rounded=0;elbow=vertical;" edge="1" parent="1">
          <mxGeometry width="50" height="50" relative="1" as="geometry">
            <mxPoint x="-640" y="970" as="sourcePoint" />
            <mxPoint x="-70" y="970" as="targetPoint" />
          </mxGeometry>
        </mxCell>
        <mxCell id="VDdBOoh0vI-qaVWEPdKM-9" value="3.查看病人性别以及状况" style="text;html=1;align=center;verticalAlign=middle;resizable=0;points=[];autosize=1;strokeColor=none;fillColor=none;" vertex="1" parent="1">
          <mxGeometry x="-240" y="950" width="150" height="20" as="geometry" />
        </mxCell>
        <mxCell id="VDdBOoh0vI-qaVWEPdKM-10" value="" style="endArrow=classic;html=1;rounded=0;elbow=vertical;" edge="1" parent="1">
          <mxGeometry width="50" height="50" relative="1" as="geometry">
            <mxPoint x="-60" y="1010" as="sourcePoint" />
            <mxPoint x="-250" y="1010" as="targetPoint" />
          </mxGeometry>
        </mxCell>
        <mxCell id="VDdBOoh0vI-qaVWEPdKM-11" value="4.调用selectgender()和selectstate方法" style="text;html=1;align=center;verticalAlign=middle;resizable=0;points=[];autosize=1;strokeColor=none;fillColor=none;" vertex="1" parent="1">
          <mxGeometry x="-270" y="990" width="220" height="20" as="geometry" />
        </mxCell>
        <mxCell id="VDdBOoh0vI-qaVWEPdKM-15" value="" style="endArrow=classic;html=1;rounded=0;elbow=vertical;" edge="1" parent="1">
          <mxGeometry width="50" height="50" relative="1" as="geometry">
            <mxPoint x="-640" y="1070" as="sourcePoint" />
            <mxPoint x="120" y="1070" as="targetPoint" />
          </mxGeometry>
        </mxCell>
        <mxCell id="VDdBOoh0vI-qaVWEPdKM-16" value="" style="endArrow=classic;html=1;rounded=0;elbow=vertical;" edge="1" parent="1">
          <mxGeometry width="50" height="50" relative="1" as="geometry">
            <mxPoint x="-70" y="1030" as="sourcePoint" />
            <mxPoint x="-630" y="1030" as="targetPoint" />
          </mxGeometry>
        </mxCell>
        <mxCell id="VDdBOoh0vI-qaVWEPdKM-17" value="5.返回查找结果" style="text;html=1;align=center;verticalAlign=middle;resizable=0;points=[];autosize=1;strokeColor=none;fillColor=none;" vertex="1" parent="1">
          <mxGeometry x="-410" y="1010" width="100" height="20" as="geometry" />
        </mxCell>
        <mxCell id="VDdBOoh0vI-qaVWEPdKM-19" value="6.查找病房病床是否空余以及病房属性" style="text;html=1;align=center;verticalAlign=middle;resizable=0;points=[];autosize=1;strokeColor=none;fillColor=none;" vertex="1" parent="1">
          <mxGeometry x="-430" y="1050" width="220" height="20" as="geometry" />
        </mxCell>
        <mxCell id="VDdBOoh0vI-qaVWEPdKM-20" value="" style="endArrow=classic;html=1;rounded=0;elbow=vertical;" edge="1" parent="1">
          <mxGeometry width="50" height="50" relative="1" as="geometry">
            <mxPoint x="120" y="1120" as="sourcePoint" />
            <mxPoint x="300" y="1120" as="targetPoint" />
          </mxGeometry>
        </mxCell>
        <mxCell id="VDdBOoh0vI-qaVWEPdKM-21" value="7.调用StateQuery()和selectadaptSex方法" style="text;html=1;align=center;verticalAlign=middle;resizable=0;points=[];autosize=1;strokeColor=none;fillColor=none;" vertex="1" parent="1">
          <mxGeometry x="70" y="1100" width="240" height="20" as="geometry" />
        </mxCell>
        <mxCell id="VDdBOoh0vI-qaVWEPdKM-22" value="" style="endArrow=classic;html=1;rounded=0;elbow=vertical;" edge="1" parent="1">
          <mxGeometry width="50" height="50" relative="1" as="geometry">
            <mxPoint x="300" y="1140" as="sourcePoint" />
            <mxPoint x="480" y="1140" as="targetPoint" />
          </mxGeometry>
        </mxCell>
        <mxCell id="VDdBOoh0vI-qaVWEPdKM-24" value="" style="endArrow=classic;html=1;rounded=0;elbow=vertical;" edge="1" parent="1">
          <mxGeometry width="50" height="50" relative="1" as="geometry">
            <mxPoint x="480" y="1160" as="sourcePoint" />
            <mxPoint x="-640" y="1160" as="targetPoint" />
          </mxGeometry>
        </mxCell>
        <mxCell id="VDdBOoh0vI-qaVWEPdKM-26" value="8.返回查找数据结果" style="text;html=1;align=center;verticalAlign=middle;resizable=0;points=[];autosize=1;strokeColor=none;fillColor=none;" vertex="1" parent="1">
          <mxGeometry x="-210" y="1140" width="120" height="20" as="geometry" />
        </mxCell>
        <mxCell id="VDdBOoh0vI-qaVWEPdKM-27" value="" style="endArrow=classic;html=1;rounded=0;elbow=vertical;" edge="1" parent="1">
          <mxGeometry width="50" height="50" relative="1" as="geometry">
            <mxPoint x="-640" y="1240" as="sourcePoint" />
            <mxPoint x="660" y="1240" as="targetPoint" />
          </mxGeometry>
        </mxCell>
        <mxCell id="VDdBOoh0vI-qaVWEPdKM-28" value="9.查找适合病床并对病床状态进行更新" style="text;html=1;align=center;verticalAlign=middle;resizable=0;points=[];autosize=1;strokeColor=none;fillColor=none;" vertex="1" parent="1">
          <mxGeometry x="-120" y="1220" width="220" height="20" as="geometry" />
        </mxCell>
        <mxCell id="VDdBOoh0vI-qaVWEPdKM-30" value="" style="endArrow=classic;html=1;rounded=0;elbow=vertical;" edge="1" parent="1">
          <mxGeometry width="50" height="50" relative="1" as="geometry">
            <mxPoint x="660" y="1290" as="sourcePoint" />
            <mxPoint x="840" y="1290" as="targetPoint" />
          </mxGeometry>
        </mxCell>
        <mxCell id="VDdBOoh0vI-qaVWEPdKM-31" value="10.调用bedquery()和bedUpdate()" style="text;html=1;align=center;verticalAlign=middle;resizable=0;points=[];autosize=1;strokeColor=none;fillColor=none;" vertex="1" parent="1">
          <mxGeometry x="635" y="1260" width="190" height="20" as="geometry" />
        </mxCell>
        <mxCell id="VDdBOoh0vI-qaVWEPdKM-32" value="" style="endArrow=classic;html=1;rounded=0;elbow=vertical;" edge="1" parent="1">
          <mxGeometry width="50" height="50" relative="1" as="geometry">
            <mxPoint x="970" y="1330" as="sourcePoint" />
            <mxPoint x="-630" y="1330" as="targetPoint" />
          </mxGeometry>
        </mxCell>
        <mxCell id="VDdBOoh0vI-qaVWEPdKM-33" value="11.返回数据" style="text;html=1;align=center;verticalAlign=middle;resizable=0;points=[];autosize=1;strokeColor=none;fillColor=none;" vertex="1" parent="1">
          <mxGeometry x="-10" y="1310" width="80" height="20" as="geometry" />
        </mxCell>
      </root>
    </mxGraphModel>
  </diagram>
</mxfile>
